<svg xmlns="http://www.w3.org/2000/svg" width="29.412" height="35" viewBox="0 0 29.412 35">
  <path id="Icon_awesome-apple" data-name="Icon awesome-apple" d="M24.872,20.746a7.3,7.3,0,0,1,3.907-6.626,8.4,8.4,0,0,0-6.618-3.485c-2.774-.219-5.806,1.617-6.915,1.617-1.172,0-3.86-1.539-5.97-1.539C4.915,10.783.281,14.19.281,21.121a19.475,19.475,0,0,0,1.125,6.345c1,2.868,4.61,9.9,8.377,9.783,1.969-.047,3.36-1.4,5.923-1.4,2.485,0,3.774,1.4,5.97,1.4,3.8-.055,7.064-6.446,8.017-9.322a7.746,7.746,0,0,1-4.821-7.181ZM20.449,7.915A7.36,7.36,0,0,0,22.324,2.25a8.286,8.286,0,0,0-5.306,2.727,7.475,7.475,0,0,0-2,5.618,6.563,6.563,0,0,0,5.431-2.68Z" transform="translate(-0.281 -2.25)"/>
</svg>
