<svg xmlns="http://www.w3.org/2000/svg" width="97.184" height="97.188" viewBox="0 0 97.184 97.188">
  <g id="Group_196" data-name="Group 196" transform="translate(0)">
    <path id="Path_1312" data-name="Path 1312" d="M359.184,160.592a48.427,48.427,0,0,1-3.913,19.135l-.161.371a48.673,48.673,0,0,1-52.95,28.357q-.438-.078-.874-.161a48.159,48.159,0,0,1-8.79-2.592q-.692-.278-1.374-.576c-.311-.135-.621-.275-.929-.418a48.6,48.6,0,1,1,68.991-44.115Z" transform="translate(-262 -112)" fill="#6c63ff"/>
    <path id="Path_1313" data-name="Path 1313" d="M418.514,393.7q-.438-.078-.874-.161a199.809,199.809,0,0,0-3.062-28.651,106.3,106.3,0,0,0-5.24-19.059,59.329,59.329,0,0,0-2.742-6.015,31.193,31.193,0,0,0-8.706-10.768l.512-.7a30.064,30.064,0,0,1,7.795,8.925q1.037,1.721,1.993,3.672,1.024,2.087,1.954,4.432.593,1.492,1.146,3.088a112.085,112.085,0,0,1,4.092,15.811q.373,1.962.71,4.021A203.885,203.885,0,0,1,418.514,393.7Z" transform="translate(-378.354 -297.247)" opacity="0.2"/>
    <path id="Path_1314" data-name="Path 1314" d="M410.619,618.431c-.311-.135-.621-.275-.929-.418a70.58,70.58,0,0,0-1.862-11.155,36.6,36.6,0,0,0-1.7-5.06,15.185,15.185,0,0,0-4.57-6.4l.512-.7a15.888,15.888,0,0,1,4.779,6.547,44.907,44.907,0,0,1,2.862,10.088C410.16,613.878,410.442,616.335,410.619,618.431Z" transform="translate(-381.496 -525.305)" opacity="0.2"/>
    <circle id="Ellipse_24" data-name="Ellipse 24" cx="4.326" cy="4.326" r="4.326" transform="translate(10.376 23.131)" opacity="0.2"/>
    <circle id="Ellipse_25" data-name="Ellipse 25" cx="4.326" cy="4.326" r="4.326" transform="translate(11.769 60.367)" opacity="0.2"/>
    <path id="Path_1315" data-name="Path 1315" d="M482.294,300.635A19.214,19.214,0,0,0,483.4,310.5a17.511,17.511,0,0,0,3.322-18.741A19.215,19.215,0,0,0,482.294,300.635Z" transform="translate(-450.419 -265.913)" opacity="0.2"/>
    <path id="Path_1316" data-name="Path 1316" d="M336.2,401.713a19.309,19.309,0,0,0,9.9.647,17.618,17.618,0,0,0-17.875-6.536A19.309,19.309,0,0,0,336.2,401.713Z" transform="translate(-318.697 -354.707)" opacity="0.2"/>
    <path id="Path_1317" data-name="Path 1317" d="M344.616,642.091a13.468,13.468,0,0,0,6.941.44,12.273,12.273,0,0,0-12.529-4.581A13.468,13.468,0,0,0,344.616,642.091Z" transform="translate(-327.954 -562.111)" opacity="0.2"/>
    <circle id="Ellipse_26" data-name="Ellipse 26" cx="18.944" cy="18.944" r="18.944" transform="translate(29.549 21.465)" fill="#d0cde1"/>
    <path id="Path_1318" data-name="Path 1318" d="M547.833,458.707s2.368,11.248,2.368,12.432,11.248,6.512,11.248,6.512l10.064-1.776,3.552-10.656s-5.92-8.88-5.92-12.432Z" transform="translate(-506.741 -403.794)" fill="#d0cde1"/>
    <path id="Path_1319" data-name="Path 1319" d="M462.506,526.742l-.161.371a48.672,48.672,0,0,1-52.95,28.357q-.438-.078-.874-.161a48.16,48.16,0,0,1-8.79-2.592q-.692-.278-1.374-.576c-.311-.135-.621-.275-.929-.418a48.543,48.543,0,0,1-7.943-4.641l-2.246-6.514,1.262-.963,2.6-1.982,2.77-2.115.72-.551,10.87-8.3.8-.612,5.65-4.313h0s6.11,9.956,14.99,7a12.245,12.245,0,0,0,8.686-11.448Z" transform="translate(-369.235 -459.015)" fill="#2f2e41"/>
    <path id="Path_1320" data-name="Path 1320" d="M458.5,224.529s6.015-13.032,17.542-10.024,18.044,7.518,18.545,12.029a64.365,64.365,0,0,1-.251,11.277s-1.253-9.272-9.272-7.268-20.55.5-20.55.5l-2,18.044s-2.255-3.258-4.762-1.253S450.48,228.539,458.5,224.529Z" transform="translate(-426.436 -199.383)" fill="#2f2e41"/>
    <path id="Path_1321" data-name="Path 1321" d="M385.415,691.419q-.692-.278-1.374-.576c-.311-.135-.621-.275-.929-.418a48.712,48.712,0,0,1-12.592-8.439,17.034,17.034,0,0,1,2.4-2.716h8.88l1.331,4.477Z" transform="translate(-354.919 -597.717)" fill="#2f2e41"/>
    <path id="Path_1322" data-name="Path 1322" d="M853.442,576.32l7.618,1.346A48.586,48.586,0,0,1,852.9,590.4Z" transform="translate(-767.95 -509.568)" fill="#2f2e41"/>
  </g>
</svg>
